<?xml version="1.0" encoding="UTF-8"?><svg version="1.1" width="60mm" height="60mm" viewBox="0 0 60 60" xmlns="http://www.w3.org/2000/svg"><g><path d="M21.00,1.00 L46.00,1.00 C 51.00,1.00 49.75,12.13 44.87,11.01 L25.37,6.56 C 20.50,5.45 19.02,9.68 23.52,11.85 L41.54,20.52 C 46.05,22.69 40.09,32.17 36.18,29.06 L20.55,16.59 C 16.64,13.47 13.47,16.64 16.59,20.55 L29.06,36.18 C 32.17,40.09 22.69,46.05 20.52,41.54 L11.85,23.52 C 9.68,19.02 5.45,20.50 6.56,25.37 L11.01,44.87 C 12.13,49.75 1.00,51.00 1.00,46.00 L1.00,21.00 " stroke-width="2" transform-origin="center" transform="scale(1, -1)" stroke="black" fill="transparent"></path></g></svg>